<svg width="229" height="42" viewBox="0 0 229 42" fill="none" xmlns="http://www.w3.org/2000/svg">
<path d="M5.20104 0.630126C6.28126 0.680136 7.32146 0.670134 8.33167 0.590118C9.33187 0.510102 10.2821 0.390078 11.1722 0.220044C11.1422 0.840168 11.1322 1.47029 11.1322 2.09042C11.1322 2.71054 11.1222 3.34067 11.0922 3.96079C10.3621 3.91078 9.63193 3.85077 8.90178 3.80076C8.17163 3.75075 7.42148 3.69074 6.67133 3.64073C6.53131 4.64093 6.43129 5.66113 6.37127 6.71134C6.30126 7.75155 6.25125 8.84177 6.23125 9.982C6.18124 11.7123 6.19124 13.3727 6.27125 14.953C6.35127 16.5333 6.46129 18.0636 6.59132 19.5239C5.97119 19.4939 5.34107 19.4739 4.72094 19.4639C4.10082 19.4539 3.47069 19.4339 2.85057 19.4039L3.58072 3.44069C2.9806 3.39068 2.40048 3.34067 1.83037 3.30066C1.26025 3.26065 0.680136 3.21064 0.080016 3.16063C0.05001 2.59052 0.030006 2.10042 0.020004 1.70034C0.010002 1.28026 0 0.970194 0 0.75015C0 0.370074 0.05001 0.140028 0.160032 0.060012C0.270054 -0.020004 0.5001 -0.020004 0.85017 0.060012C1.07021 0.110022 1.29026 0.160032 1.5203 0.180036C1.75035 0.210042 1.9904 0.25005 2.23045 0.30006C2.72054 0.380076 3.20064 0.45009 3.69074 0.5001C4.18084 0.570114 4.68094 0.610122 5.20104 0.630126ZM1.91038 1.77035C2.29046 1.82036 2.61052 1.86037 2.88058 1.87037C3.15063 1.88038 3.39068 1.89038 3.61072 1.89038C3.42068 1.84037 3.20064 1.78036 2.94059 1.71034C2.68054 1.64033 2.38048 1.58032 2.03041 1.53031C1.60032 1.45029 1.20024 1.39028 0.830166 1.37027C0.460092 1.34027 0.280056 1.36027 0.280056 1.41028C0.280056 1.44029 0.460092 1.4903 0.810162 1.57031C1.16023 1.65033 1.53031 1.72034 1.91038 1.77035ZM5.20104 14.4829C5.28106 13.7828 5.34107 13.1326 5.38108 12.5325C5.42108 11.9324 5.41108 11.6423 5.36107 11.6423C5.33107 11.6423 5.27105 11.9224 5.18104 12.4925C5.08102 13.0626 5.011 13.6527 4.96099 14.2829C4.88098 15.4231 4.84097 16.3233 4.84097 17.0034C4.89098 16.7033 4.95099 16.3433 5.021 15.9232C5.08102 15.5031 5.14103 15.023 5.20104 14.4829ZM5.40108 3.56071C5.4811 2.42048 5.5111 1.85037 5.4811 1.85037C5.45109 1.85037 5.42108 1.9804 5.38108 2.24045C5.34107 2.5005 5.26105 2.94059 5.16103 3.56071C5.13103 3.75075 5.11102 3.93079 5.10102 4.11082C5.09102 4.29086 5.07101 4.4809 5.04101 4.70094C4.96099 5.84117 4.92098 6.74135 4.92098 7.42148C4.97099 7.12142 5.03101 6.76135 5.10102 6.34127C5.17103 5.92118 5.23105 5.44109 5.28106 4.90098C5.31106 4.68094 5.33107 4.46089 5.34107 4.23085C5.35107 4.0008 5.37107 3.77075 5.40108 3.56071ZM7.88158 1.85037C8.61172 1.93039 9.18184 1.97039 9.59192 1.97039C9.40188 1.92038 9.18184 1.86037 8.92178 1.79036C8.66173 1.72034 8.37167 1.66033 8.05161 1.61032C7.59152 1.53031 7.18144 1.47029 6.81136 1.45029C6.44129 1.42028 6.26125 1.42028 6.26125 1.45029C6.26125 1.5003 6.44129 1.57031 6.79136 1.65033C7.13143 1.73035 7.5015 1.80036 7.88158 1.85037Z" fill="#FF8C00"/>
<path d="M17.3835 3.60072C16.5933 3.82076 15.9732 4.22084 15.5131 4.80096C15.053 5.38108 14.7829 6.08122 14.7029 6.89138C14.5429 7.84157 14.4329 8.82176 14.3829 9.83197C14.3328 10.8522 14.2828 11.8324 14.2628 12.7726C14.5629 12.8526 14.8529 12.9226 15.133 12.9726C15.4131 13.0226 15.7231 13.0526 16.0432 13.0526C16.8033 13.0526 17.5035 12.9626 18.1536 12.7726C18.1836 11.4723 18.2036 10.202 18.2336 8.95179C18.2636 7.71154 18.2836 6.43129 18.3136 5.13103C18.7237 5.08102 19.0538 5.04101 19.3038 5.03101C19.5639 5.021 19.7939 5.001 20.014 4.991C20.234 4.981 20.354 4.97099 20.3841 4.97099C20.5741 4.94099 20.7641 4.93099 20.9542 4.93099C21.1442 4.93099 21.3042 4.981 21.4443 5.09102C21.5843 5.14103 21.6143 5.33107 21.5443 5.66113C21.4743 5.9812 21.4443 6.22124 21.4443 6.35127C21.3943 6.59132 21.3542 6.83137 21.3442 7.06141C21.3342 7.29146 21.3142 7.53151 21.2842 7.77155C21.0442 10.3421 21.0242 12.9826 21.2442 15.6931C21.2442 15.7732 21.2642 16.0332 21.3042 16.4633C21.3442 16.8934 21.3843 17.3535 21.4243 17.8436C21.4643 18.3337 21.5143 18.7738 21.5843 19.1638C21.6543 19.5539 21.6943 19.754 21.7243 19.754H17.9436C17.9736 19.1338 17.9936 18.5237 18.0036 17.9236C18.0136 17.3235 18.0236 16.7233 18.0236 16.0932C17.4035 16.0432 16.7633 15.9932 16.1132 15.9532C15.4631 15.9132 14.8229 15.8632 14.2028 15.8132C14.2028 16.4933 14.2028 17.1534 14.2028 17.8036C14.2028 18.4537 14.2328 19.0538 14.2828 19.5939C13.6627 19.6239 13.0326 19.6239 12.3925 19.5939C11.7523 19.5639 11.1222 19.5239 10.5021 19.4739C10.5821 18.4137 10.6621 17.4935 10.7221 16.6933C10.7921 15.8932 10.8721 15.033 10.9622 14.0928C11.0522 13.1626 11.1422 12.2725 11.2022 11.4323C11.2722 10.5921 11.3422 9.87197 11.4023 9.26185C11.4723 8.65173 11.5023 8.28166 11.5023 8.14163C11.6123 7.44149 11.7423 6.73135 11.8924 6.03121C12.0424 5.33107 12.2624 4.64093 12.5625 3.96079C12.8625 3.31066 13.2626 2.77055 13.7627 2.34047C14.2628 1.91038 14.7829 1.54031 15.323 1.24025C16.4633 0.670134 17.6035 0.370074 18.7537 0.330066C19.904 0.290058 21.0042 0.360072 22.0644 0.55011C22.0344 1.15023 22.0044 1.64033 21.9644 2.03041C21.9244 2.42048 21.8944 2.73055 21.8643 2.94059C21.8143 3.24065 21.7043 3.47069 21.5443 3.63073C21.4343 3.74075 21.3042 3.77075 21.1342 3.71074C20.9742 3.66073 20.8341 3.62072 20.7241 3.59072C20.184 3.43069 19.6239 3.35067 19.0338 3.37067C18.4837 3.39068 17.9236 3.46069 17.3835 3.60072ZM13.5627 10.222C13.6127 9.38188 13.6327 8.96179 13.6027 8.96179C13.5727 8.96179 13.5427 9.07181 13.5027 9.28186C13.4627 9.5019 13.4027 9.77195 13.3426 10.112C13.2726 10.4521 13.2126 10.8322 13.1626 11.2523C13.1126 11.6723 13.0526 12.1024 13.0026 12.5325C12.9226 13.3227 12.8625 14.0228 12.8225 14.6429C12.7825 15.2631 12.7525 15.7932 12.7225 16.2232C12.7725 15.8432 12.8625 15.3631 12.9626 14.783C13.0726 14.2028 13.1626 13.5627 13.2426 12.8526C13.2926 12.3625 13.3526 11.9024 13.4027 11.4523C13.4527 11.0122 13.5127 10.6021 13.5627 10.222ZM16.0432 14.4029C15.8531 14.3529 15.5931 14.3829 15.253 14.5029C14.913 14.6229 14.6929 14.7029 14.5829 14.7229C14.6929 14.773 14.903 14.763 15.233 14.6829C15.5531 14.6029 15.8031 14.5929 15.9632 14.6429C16.0732 14.6729 16.2232 14.6529 16.4333 14.5829C16.6333 14.5129 16.8333 14.4329 17.0234 14.3429C17.2134 14.2528 17.3735 14.1528 17.5135 14.0628C17.6535 13.9728 17.7135 13.9028 17.7135 13.8828C17.7135 13.8528 17.6435 13.8728 17.5135 13.9428C17.3735 14.0128 17.2134 14.0828 17.0234 14.1428C16.8333 14.2128 16.6433 14.2829 16.4533 14.3429C16.2632 14.4129 16.1232 14.4329 16.0432 14.4029ZM17.9936 1.93039C17.2034 2.04041 16.5333 2.25045 15.9832 2.58052C15.4231 2.90058 15.013 3.23065 14.7429 3.55071C15.043 3.28066 15.4431 3.03061 15.9432 2.80056C16.4433 2.57051 17.0434 2.39048 17.7535 2.25045C18.2136 2.17043 18.6537 2.13043 19.0738 2.13043C19.4939 2.13043 19.884 2.14043 20.234 2.17043C20.4241 2.17043 20.5841 2.18044 20.7241 2.19044C20.8641 2.20044 20.9842 2.21044 21.0942 2.21044C21.2342 2.24045 21.3342 2.25045 21.4143 2.25045C21.4143 2.22044 21.3142 2.18044 21.1142 2.11042C20.9142 2.04041 20.6441 1.9904 20.324 1.95039C20.004 1.91038 19.6339 1.88038 19.2238 1.87037C18.8037 1.86037 18.3937 1.88038 17.9936 1.93039ZM19.7839 7.54151C19.7539 8.0016 19.7439 8.43169 19.7439 8.82176C19.7439 9.21184 19.7439 9.54191 19.7439 9.81196C19.7939 9.57191 19.8539 9.27185 19.904 8.92178C19.954 8.57171 19.994 8.16163 20.024 7.70154C20.104 7.13143 20.154 6.60132 20.164 6.10122C20.174 5.60112 20.154 5.35107 20.104 5.35107C20.054 5.35107 19.994 5.59112 19.944 6.06121C19.884 6.53131 19.8339 7.0214 19.7839 7.54151ZM20.184 15.6231C20.264 15.053 20.314 14.5229 20.324 14.0228C20.334 13.5227 20.314 13.2727 20.264 13.2727C20.214 13.2727 20.154 13.5127 20.104 13.9828C20.054 14.4529 19.994 14.953 19.944 15.4631C19.914 15.9232 19.904 16.3533 19.904 16.7433C19.904 17.1334 19.904 17.4535 19.904 17.6935C19.954 17.4735 20.014 17.1934 20.064 16.8434C20.114 16.4833 20.154 16.0832 20.184 15.6231Z" fill="#FF8C00"/>
<path d="M36.4673 9.4419C36.4173 11.3623 36.4173 13.2027 36.4873 14.943C36.5573 16.6934 36.6674 18.3437 36.8374 19.914C36.2173 19.884 35.5871 19.864 34.967 19.854C34.3469 19.844 33.7168 19.824 33.0967 19.794C33.1267 19.2239 33.1667 18.3937 33.2167 17.2935C33.2667 16.1933 33.3367 15.053 33.4167 13.8628C33.4967 12.6725 33.5667 11.5323 33.6168 10.4321C33.6668 9.33188 33.7068 8.50172 33.7368 7.9316C33.5967 8.53172 33.4567 9.31188 33.2867 10.2921C33.1267 11.2623 32.9666 12.2625 32.8166 13.2727C32.6666 14.2929 32.5365 15.2531 32.4065 16.1732C32.2865 17.0934 32.1865 17.8236 32.1065 18.3637C31.9664 18.3137 31.7364 18.2737 31.3963 18.2637C31.0562 18.2537 30.6962 18.2337 30.2961 18.2237C29.906 18.2137 29.5259 18.2137 29.1759 18.2237C28.8258 18.2337 28.5657 18.2537 28.4057 18.2837C28.2957 17.6836 28.1857 16.9434 28.0556 16.0532C27.9356 15.163 27.8056 14.2329 27.6656 13.2727C27.5255 12.3125 27.4055 11.3823 27.2755 10.4921C27.1555 9.60194 27.0254 8.85179 26.8854 8.26167C26.8854 8.9118 26.9054 9.78197 26.9454 10.8622C26.9854 11.9424 27.0254 13.0626 27.0654 14.2129C27.1055 15.3631 27.1555 16.4633 27.2055 17.5035C27.2555 18.5437 27.3155 19.3539 27.3655 19.924C26.7454 19.894 26.1153 19.874 25.4951 19.864C24.875 19.854 24.2449 19.834 23.6248 19.804C23.7648 16.5533 23.8948 13.3227 24.0348 10.122C24.1749 6.9114 24.3049 3.70076 24.4449 0.480112C25.4151 0.400096 26.1553 0.360088 26.6354 0.360088C26.7954 0.310078 26.9054 0.27007 26.9554 0.240064C27.0654 0.210058 27.1855 0.190054 27.3255 0.180052C27.4655 0.17005 27.5955 0.190054 27.7356 0.240064C27.7656 0.27007 27.7856 0.280072 27.7956 0.280072C27.8056 0.280072 27.8256 0.290074 27.8556 0.32008C27.9956 1.70036 28.1757 3.12064 28.4057 4.56093C28.6358 6.01122 28.9158 7.50152 29.2359 9.05183C29.3759 9.73196 29.5159 10.3821 29.686 11.0222C29.846 11.6623 30.006 12.2925 30.1761 12.9126C30.7962 10.8022 31.3963 8.71176 31.9864 6.64134C32.6066 4.55093 33.2067 2.47051 33.8368 0.390094C33.9168 0.390094 33.9968 0.400096 34.0568 0.410098C34.1269 0.4201 34.1869 0.430102 34.2369 0.430102C35.2671 0.350086 35.9572 0.310078 36.3073 0.310078C36.4173 0.310078 36.5373 0.32008 36.6774 0.350086C36.8174 0.380092 36.9474 0.430102 37.0874 0.510118C37.1175 0.540124 37.1275 0.560128 37.1275 0.57013C37.1275 0.580132 37.1375 0.600136 37.1675 0.630142C36.9774 1.98041 36.8174 3.39069 36.6974 4.85099C36.5773 6.32128 36.4973 7.85159 36.4673 9.4419ZM26.0352 14.4029C26.0852 14.0228 26.1253 13.6427 26.1553 13.2627C26.1853 12.8826 26.2053 12.5425 26.2153 12.2425C26.2253 11.9424 26.2353 11.7124 26.2353 11.5323C26.2353 11.3523 26.2253 11.2723 26.1953 11.2723C26.1653 11.2723 26.1453 11.3623 26.1153 11.5323C26.0852 11.7124 26.0552 11.9324 26.0152 12.2025C25.9752 12.4725 25.9352 12.7826 25.8952 13.1326C25.8552 13.4827 25.8252 13.8228 25.7952 14.1528C25.7152 15.4031 25.6752 16.4033 25.6752 17.1534C25.7252 16.8334 25.7852 16.4333 25.8552 15.9732C25.9152 15.5231 25.9752 14.993 26.0352 14.4029ZM25.7452 6.28127V6.69135C25.7752 6.64134 25.7852 6.55133 25.7852 6.45131C25.7952 6.39129 25.7752 6.33128 25.7452 6.28127ZM27.2155 5.9112C27.2655 6.05123 27.3055 6.17125 27.3155 6.30128C27.3255 6.4213 27.3455 6.54132 27.3755 6.65135C27.3755 6.27127 27.3355 5.80118 27.2555 5.23106C27.2555 5.37109 27.2555 5.48111 27.2555 5.58113C27.2555 5.66115 27.2355 5.78117 27.2155 5.9112ZM29.766 16.7934C29.766 16.7634 29.756 16.6133 29.726 16.3233C29.696 16.0432 29.656 15.6031 29.606 15.003C29.5759 14.863 29.5559 14.723 29.5459 14.5529C29.5359 14.3929 29.5159 14.2329 29.4859 14.0628C29.4359 13.6828 29.3759 13.3127 29.3259 12.9426C29.2759 12.5725 29.2059 12.2525 29.1459 11.9724C29.0758 11.6924 29.0258 11.4623 28.9858 11.2823C28.9458 11.1022 28.9158 11.0222 28.8858 11.0222C28.9158 11.3723 28.9358 11.6824 28.9658 11.9524C28.9958 12.2225 29.0258 12.5325 29.0658 12.8826C29.1059 13.2327 29.1559 13.5727 29.2059 13.9028C29.2559 14.2229 29.3059 14.5229 29.3459 14.773C29.3859 15.033 29.4359 15.2531 29.4859 15.4431C29.646 16.3533 29.746 16.7934 29.766 16.7934ZM32.0464 14.2429C32.1865 13.8928 32.3065 13.5427 32.4365 13.1827C32.5565 12.8326 32.6566 12.5125 32.7366 12.2325C32.8166 11.9524 32.8766 11.7224 32.9166 11.5423C32.9566 11.3623 32.9666 11.2823 32.9366 11.2823C32.8866 11.2523 32.7466 11.5323 32.5265 12.1124C32.3065 12.6926 32.0965 13.3127 31.8764 13.9628C31.7364 14.4229 31.6164 14.853 31.4863 15.2431C31.3663 15.6331 31.2663 15.9932 31.1863 16.3233L31.2263 16.3633V16.4433C31.3663 16.1432 31.4963 15.8232 31.6364 15.4731C31.7764 15.103 31.9064 14.703 32.0464 14.2429ZM33.6668 6.56133V6.4413C33.6368 6.49131 33.6268 6.54132 33.6268 6.56133C33.6268 6.59133 33.6168 6.63134 33.5867 6.68135C33.6168 6.65135 33.6268 6.63134 33.6268 6.62134C33.6268 6.61134 33.6468 6.59133 33.6668 6.56133ZM35.4571 14.4029C35.5071 14.0228 35.5471 13.6427 35.5771 13.2627C35.6072 12.8826 35.6272 12.5425 35.6372 12.2425C35.6472 11.9424 35.6572 11.7124 35.6572 11.5323C35.6572 11.3523 35.6472 11.2723 35.6172 11.2723C35.5871 11.2723 35.5671 11.3623 35.5371 11.5323C35.5071 11.7124 35.4771 11.9324 35.4371 12.2025C35.3971 12.4725 35.3571 12.7826 35.3171 13.1326C35.2771 13.4827 35.2471 13.8228 35.2171 14.1528C35.1371 15.4031 35.0971 16.4033 35.0971 17.1534C35.1471 16.8334 35.2071 16.4333 35.2771 15.9732C35.3371 15.5231 35.4071 14.993 35.4571 14.4029ZM35.1771 6.32128V6.69135C35.2071 6.58133 35.2271 6.47131 35.2371 6.37129C35.2471 6.26127 35.2671 6.14124 35.2971 6.00122C35.2371 6.16125 35.1971 6.26127 35.1771 6.32128Z" fill="#FF8C00"/>
<path d="M3.70075 41.2382C3.21065 41.2882 2.73055 41.3583 2.24046 41.4383C2.00041 41.4883 1.76036 41.5283 1.53031 41.5583C1.30027 41.5883 1.08022 41.6283 0.86018 41.6783C0.51011 41.7583 0.280064 41.7583 0.170042 41.6783C0.0600198 41.5983 0.0100098 41.3683 0.0100098 40.9882C0.0100098 40.7681 0.0200118 40.4581 0.0300138 40.058C0.0400158 39.6479 0.0600198 39.1678 0.0900258 38.5977C0.690146 38.5477 1.27026 38.4977 1.84038 38.4577C2.41049 38.4177 2.99061 38.3677 3.59073 38.3177L2.86058 22.3545C3.4807 22.3245 4.10083 22.3045 4.73095 22.2944C5.35108 22.2844 5.9712 22.2644 6.60133 22.2344C6.4613 23.6947 6.36128 25.215 6.28126 26.8053C6.20125 28.3857 6.18124 30.046 6.24126 31.7763C6.27126 32.9166 6.31127 34.0068 6.38128 35.047C6.4513 36.0872 6.55132 37.1074 6.68134 38.1176C7.4415 38.0676 8.18164 38.0076 8.91179 37.9576C9.64193 37.9076 10.3721 37.8476 11.1022 37.7975C11.1322 38.4177 11.1422 39.0378 11.1422 39.6679C11.1422 40.288 11.1522 40.9082 11.1822 41.5383C10.2921 41.3783 9.34188 41.2582 8.34168 41.1682C7.34148 41.0882 6.30127 41.0682 5.21105 41.1282C4.68094 41.1382 4.18084 41.1782 3.70075 41.2382ZM0.81017 40.178C0.4601 40.258 0.280064 40.3181 0.280064 40.3381C0.280064 40.3881 0.4601 40.4081 0.830174 40.3781C1.20025 40.3481 1.59033 40.298 2.03041 40.218C2.38048 40.168 2.69055 40.098 2.9406 40.038C3.20065 39.968 3.42069 39.908 3.61073 39.858C3.39069 39.858 3.15064 39.868 2.88058 39.878C2.61053 39.888 2.28046 39.928 1.91039 39.978C1.53031 40.028 1.16024 40.098 0.81017 40.178ZM5.02101 25.8252C4.951 25.4051 4.89099 25.045 4.84098 24.7449C4.84098 25.4251 4.88098 26.3253 4.961 27.4655C5.01101 28.0856 5.09103 28.6857 5.18104 29.2558C5.27106 29.826 5.34108 30.106 5.36108 30.106C5.41109 30.106 5.42109 29.8059 5.38108 29.2158C5.34108 28.6157 5.28106 27.9656 5.20105 27.2654C5.14104 26.7253 5.08102 26.2452 5.02101 25.8252ZM5.34108 37.5175C5.33107 37.2874 5.31107 37.0674 5.28106 36.8474C5.23105 36.3073 5.16104 35.8272 5.10103 35.4071C5.03101 34.987 4.971 34.6269 4.92099 34.3269C4.92099 35.007 4.961 35.9072 5.04102 37.0474C5.07102 37.2674 5.09103 37.4575 5.10103 37.6375C5.11103 37.8176 5.13103 37.9976 5.16104 38.1876C5.27106 38.8078 5.34108 39.2478 5.38108 39.5079C5.42109 39.7679 5.4511 39.898 5.4811 39.898C5.51111 39.898 5.4811 39.3279 5.40109 38.1876C5.37108 37.9776 5.35108 37.7475 5.34108 37.5175ZM6.78136 40.098C6.43129 40.178 6.25126 40.248 6.25126 40.298C6.25126 40.3281 6.43129 40.3281 6.80137 40.298C7.17144 40.268 7.58152 40.218 8.04162 40.138C8.36168 40.088 8.66174 40.018 8.91179 39.958C9.17184 39.888 9.39189 39.828 9.58192 39.7779C9.17184 39.7779 8.61173 39.818 7.87158 39.898C7.50151 39.948 7.13143 40.018 6.78136 40.098Z" fill="#8B4513"/>
<path d="M19.0638 38.3777C19.6439 38.3877 20.204 38.3176 20.7541 38.1576C20.8642 38.1276 20.9942 38.0876 21.1642 38.0376C21.3243 37.9876 21.4643 38.0076 21.5743 38.1176C21.7343 38.2776 21.8444 38.5077 21.8944 38.8077C21.9244 39.0278 21.9544 39.3278 21.9944 39.7179C22.0344 40.108 22.0644 40.6081 22.0944 41.1982C21.0342 41.3883 19.934 41.4583 18.7838 41.4183C17.6335 41.3783 16.4933 41.0682 15.3531 40.5081C14.813 40.208 14.2929 39.848 13.7928 39.4079C13.2927 38.9778 12.8926 38.4377 12.5925 37.7875C12.2925 37.1074 12.0724 36.4173 11.9224 35.7171C11.7724 35.017 11.6423 34.3068 11.5323 33.6067C11.5323 33.4667 11.5023 33.0966 11.4323 32.4865C11.3623 31.8764 11.2923 31.1562 11.2322 30.316C11.1622 29.4759 11.0822 28.5857 10.9922 27.6555C10.8922 26.7253 10.8122 25.8552 10.7521 25.055C10.6821 24.2548 10.6121 23.3246 10.5321 22.2744C11.1522 22.2244 11.7824 22.1744 12.4225 22.1544C13.0626 22.1244 13.6927 22.1244 14.3129 22.1544C14.2629 22.6945 14.2328 23.2946 14.2328 23.9448C14.2328 24.5949 14.2328 25.255 14.2328 25.9352C14.853 25.8852 15.4931 25.8352 16.1432 25.7951C16.7934 25.7551 17.4335 25.7051 18.0536 25.6551C18.0536 25.035 18.0436 24.4249 18.0336 23.8247C18.0236 23.2246 18.0036 22.6245 17.9736 21.9944H21.7543C21.7243 21.9944 21.6843 22.1944 21.6143 22.5845C21.5443 22.9746 21.4943 23.4147 21.4543 23.9048C21.4143 24.3949 21.3743 24.855 21.3343 25.285C21.2943 25.7151 21.2743 25.9752 21.2743 26.0552C21.0542 28.7657 21.0742 31.4063 21.3143 33.9768C21.3443 34.2168 21.3643 34.4569 21.3743 34.6869C21.3843 34.917 21.4243 35.157 21.4743 35.3971C21.4743 35.5371 21.5043 35.7671 21.5743 36.0872C21.6443 36.4073 21.6043 36.5973 21.4743 36.6573C21.3343 36.7673 21.1742 36.8173 20.9842 36.8173C20.7942 36.8173 20.6041 36.8073 20.4141 36.7773C20.3841 36.7773 20.264 36.7673 20.044 36.7573C19.824 36.7473 19.5939 36.7273 19.3339 36.7173C19.0738 36.7073 18.7437 36.6673 18.3437 36.6173C18.3137 35.317 18.2937 34.0468 18.2637 32.7965C18.2336 31.5463 18.2136 30.276 18.1836 28.9758C17.5335 28.7857 16.8334 28.6957 16.0732 28.6957C15.7531 28.6957 15.4431 28.7257 15.163 28.7757C14.883 28.8257 14.5829 28.8958 14.2929 28.9758C14.3229 29.926 14.3629 30.9062 14.4129 31.9164C14.4629 32.9366 14.5729 33.9168 14.7329 34.857C14.813 35.6671 15.083 36.3673 15.5431 36.9474C16.0032 37.5275 16.6233 37.9276 17.4135 38.1476C17.9236 38.2876 18.4837 38.3577 19.0638 38.3777ZM13.4027 30.286C13.3527 29.836 13.2927 29.3759 13.2426 28.8858C13.1626 28.1856 13.0626 27.5355 12.9626 26.9554C12.8526 26.3753 12.7726 25.8952 12.7225 25.5151C12.7525 25.9452 12.7826 26.4753 12.8226 27.0954C12.8626 27.7155 12.9226 28.4257 13.0026 29.2058C13.0526 29.6359 13.1126 30.066 13.1626 30.4861C13.2126 30.9062 13.2727 31.2862 13.3427 31.6263C13.4127 31.9664 13.4627 32.2464 13.5027 32.4565C13.5427 32.6765 13.5727 32.7765 13.6027 32.7765C13.6327 32.7765 13.6127 32.3565 13.5627 31.5163C13.5127 31.1462 13.4527 30.7361 13.4027 30.286ZM16.4533 27.4055C16.6433 27.4755 16.8334 27.5455 17.0234 27.6055C17.2134 27.6755 17.3735 27.7455 17.5135 27.8055C17.6535 27.8756 17.7135 27.8956 17.7135 27.8656C17.7135 27.8356 17.6435 27.7755 17.5135 27.6855C17.3735 27.5855 17.2134 27.4955 17.0234 27.4055C16.8334 27.3054 16.6333 27.2254 16.4333 27.1654C16.2332 27.0954 16.0732 27.0754 15.9632 27.1054C15.8032 27.1554 15.5531 27.1454 15.233 27.0654C14.913 26.9854 14.6929 26.9654 14.5829 27.0254C14.6929 27.0554 14.913 27.1254 15.253 27.2454C15.5931 27.3655 15.8532 27.4055 16.0432 27.3455C16.1232 27.3154 16.2632 27.3355 16.4533 27.4055ZM19.2138 39.878C19.6239 39.868 19.984 39.838 20.3141 39.7979C20.6341 39.7579 20.9042 39.6979 21.1042 39.6379C21.3043 39.5679 21.4043 39.5179 21.4043 39.4979C21.3243 39.4979 21.2142 39.5079 21.0842 39.5379C20.9742 39.5379 20.8542 39.5479 20.7141 39.5579C20.5741 39.5679 20.4141 39.5779 20.224 39.5779C19.874 39.6079 19.4839 39.6179 19.0638 39.6179C18.6437 39.6179 18.2036 39.5779 17.7435 39.4979C17.0434 39.3579 16.4333 39.1778 15.9332 38.9478C15.4331 38.7177 15.033 38.4677 14.7329 38.1976C15.003 38.5177 15.4131 38.8478 15.9732 39.1678C16.5233 39.4879 17.1934 39.7079 17.9836 39.8179C18.3937 39.868 18.8038 39.888 19.2138 39.878ZM19.944 35.6971C19.994 36.1672 20.054 36.4073 20.104 36.4073C20.154 36.4073 20.174 36.1572 20.164 35.6571C20.154 35.157 20.104 34.6169 20.024 34.0568C19.994 33.5967 19.954 33.1866 19.904 32.8366C19.854 32.4865 19.794 32.1864 19.7439 31.9464C19.7439 32.2164 19.7439 32.5465 19.7439 32.9366C19.7439 33.3267 19.7539 33.7567 19.784 34.2168C19.834 34.7269 19.884 35.217 19.944 35.6971ZM20.064 24.905C20.014 24.5549 19.954 24.2648 19.904 24.0548C19.904 24.2948 19.904 24.6149 19.904 25.005C19.904 25.3951 19.914 25.8252 19.944 26.2852C19.994 26.7953 20.054 27.2954 20.104 27.7655C20.154 28.2356 20.214 28.4757 20.264 28.4757C20.3141 28.4757 20.3341 28.2256 20.3241 27.7255C20.3141 27.2254 20.264 26.6853 20.184 26.1252C20.154 25.6651 20.114 25.265 20.064 24.905Z" fill="#8B4513"/>
<path d="M36.6973 36.8874C36.8173 38.3477 36.9773 39.7579 37.1674 41.1082C37.1374 41.1382 37.1274 41.1582 37.1274 41.1682C37.1274 41.1782 37.1174 41.1982 37.0874 41.2282C36.9473 41.3082 36.8173 41.3683 36.6773 41.3883C36.5372 41.4183 36.4172 41.4283 36.3072 41.4283C35.9571 41.4283 35.267 41.3883 34.2368 41.3082C34.1868 41.3082 34.1168 41.3182 34.0567 41.3282C33.9867 41.3382 33.9167 41.3483 33.8367 41.3483C33.2166 39.2678 32.6065 37.1874 32.0263 35.117C31.4462 33.0466 30.8461 30.9562 30.216 28.8458C30.056 29.4659 29.8959 30.096 29.7259 30.7361C29.5659 31.3763 29.4158 32.0264 29.2758 32.7065C28.9557 34.2468 28.6757 35.7471 28.4456 37.1974C28.2156 38.6477 28.0355 40.058 27.8955 41.4383C27.8655 41.4683 27.8455 41.4783 27.8355 41.4783C27.8255 41.4783 27.8055 41.4883 27.7755 41.5183C27.6355 41.5683 27.5054 41.5883 27.3654 41.5783C27.2254 41.5683 27.1054 41.5483 26.9953 41.5183C26.9453 41.4883 26.8353 41.4483 26.6753 41.3983C26.1852 41.3983 25.455 41.3583 24.4848 41.2782C24.3448 38.0576 24.2148 34.837 24.0748 31.6363C23.9347 28.4257 23.8047 25.195 23.6647 21.9544C24.2848 21.9244 24.9049 21.9044 25.535 21.8944C26.1552 21.8844 26.7753 21.8644 27.4054 21.8344C27.3554 22.4045 27.2954 23.2046 27.2454 24.2548C27.1954 25.295 27.1454 26.3953 27.1054 27.5455C27.0654 28.6957 27.0253 29.8159 26.9853 30.8962C26.9453 31.9764 26.9253 32.8466 26.9253 33.4967C27.0654 32.8966 27.1854 32.1564 27.3154 31.2662C27.4354 30.3761 27.5655 29.4459 27.7055 28.4857C27.8455 27.5255 27.9655 26.5953 28.0956 25.7051C28.2156 24.8149 28.3356 24.0648 28.4456 23.4747C28.6057 23.5047 28.8657 23.5247 29.2158 23.5347C29.5659 23.5447 29.9359 23.5447 30.336 23.5347C30.7261 23.5247 31.0962 23.5047 31.4362 23.4947C31.7763 23.4847 32.0063 23.4447 32.1464 23.3947C32.2264 23.9348 32.3264 24.6649 32.4464 25.5851C32.5665 26.5053 32.7065 27.4755 32.8565 28.4857C33.0065 29.5059 33.1566 30.4961 33.3266 31.4663C33.4866 32.4365 33.6367 33.2266 33.7767 33.8267C33.7467 33.2566 33.7067 32.4265 33.6567 31.3262C33.6067 30.226 33.5366 29.0858 33.4566 27.8956C33.3766 26.7053 33.3066 25.5651 33.2566 24.4649C33.2066 23.3647 33.1566 22.5345 33.1366 21.9644C33.7567 21.9344 34.3768 21.9144 35.0069 21.9044C35.6271 21.8944 36.2472 21.8744 36.8773 21.8444C36.7173 23.4147 36.5973 25.075 36.5272 26.8153C36.4572 28.5657 36.4572 30.3961 36.5072 32.3164C36.4972 33.8968 36.5773 35.4271 36.6973 36.8874ZM25.8551 25.7651C25.7851 25.305 25.7251 24.915 25.6751 24.5849C25.6751 25.3451 25.7151 26.3453 25.7951 27.5855C25.8251 27.9056 25.8551 28.2456 25.8951 28.6057C25.9351 28.9558 25.9751 29.2658 26.0151 29.5359C26.0552 29.8059 26.0852 30.026 26.1152 30.206C26.1452 30.3861 26.1652 30.4661 26.1952 30.4661C26.2252 30.4661 26.2352 30.3761 26.2352 30.206C26.2352 30.026 26.2252 29.7959 26.2152 29.4959C26.2052 29.1958 26.1852 28.8558 26.1552 28.4757C26.1252 28.0956 26.0852 27.7155 26.0351 27.3355C25.9751 26.7553 25.9151 26.2252 25.8551 25.7651ZM25.7951 35.307C25.7951 35.197 25.7851 35.117 25.7551 35.067V35.4771C25.7751 35.4171 25.7951 35.3571 25.7951 35.307ZM27.2554 36.1772C27.2554 36.2672 27.2554 36.3873 27.2554 36.5273C27.3354 35.9572 27.3754 35.4871 27.3754 35.107C27.3454 35.217 27.3254 35.327 27.3154 35.4571C27.3054 35.5771 27.2654 35.7071 27.2154 35.8472C27.2354 35.9672 27.2554 36.0872 27.2554 36.1772ZM29.4858 26.2952C29.4358 26.4853 29.3858 26.7053 29.3458 26.9654C29.3058 27.2254 29.2558 27.5155 29.2058 27.8356C29.1558 28.1556 29.1058 28.4957 29.0658 28.8558C29.0257 29.2058 28.9857 29.5159 28.9657 29.7859C28.9357 30.056 28.9157 30.3661 28.8857 30.7161C28.9157 30.7161 28.9457 30.6261 28.9857 30.4561C29.0257 30.276 29.0758 30.046 29.1458 29.7659C29.2158 29.4859 29.2758 29.1558 29.3258 28.7957C29.3758 28.4257 29.4358 28.0556 29.4858 27.6755C29.5158 27.5155 29.5358 27.3555 29.5458 27.1854C29.5558 27.0254 29.5759 26.8754 29.6059 26.7353C29.6559 26.1352 29.6959 25.6951 29.7259 25.4151C29.7559 25.135 29.7659 24.975 29.7659 24.945C29.7459 24.955 29.6459 25.3951 29.4858 26.2952ZM31.6363 26.2952C31.4962 25.9452 31.3662 25.6151 31.2262 25.325V25.4051L31.1862 25.4451C31.2662 25.7651 31.3662 26.1252 31.4862 26.5253C31.6063 26.9154 31.7363 27.3455 31.8763 27.8055C32.0964 28.4557 32.3064 29.0758 32.5264 29.6559C32.7465 30.236 32.8765 30.5161 32.9365 30.4861C32.9665 30.4861 32.9565 30.3961 32.9165 30.226C32.8765 30.046 32.8165 29.8159 32.7365 29.5359C32.6565 29.2558 32.5564 28.9358 32.4364 28.5857C32.3164 28.2356 32.1864 27.8856 32.0463 27.5255C31.9063 27.0454 31.7763 26.6453 31.6363 26.2952ZM33.6267 35.127C33.6267 35.117 33.6167 35.097 33.5867 35.067C33.6167 35.117 33.6267 35.157 33.6267 35.187C33.6267 35.217 33.6367 35.257 33.6667 35.307V35.187C33.6467 35.157 33.6267 35.137 33.6267 35.127ZM35.277 25.7651C35.207 25.305 35.147 24.915 35.097 24.5849C35.097 25.3451 35.137 26.3453 35.217 27.5855C35.247 27.9056 35.277 28.2456 35.317 28.6057C35.357 28.9558 35.397 29.2658 35.437 29.5359C35.477 29.8059 35.507 30.026 35.537 30.206C35.567 30.3861 35.5871 30.4661 35.6171 30.4661C35.6471 30.4661 35.6571 30.3761 35.6571 30.206C35.6571 30.026 35.6471 29.7959 35.6371 29.4959C35.6271 29.1958 35.6071 28.8558 35.5771 28.4757C35.547 28.0956 35.507 27.7155 35.457 27.3355C35.407 26.7553 35.337 26.2252 35.277 25.7651ZM35.297 35.7571C35.267 35.6171 35.247 35.4971 35.237 35.3871C35.227 35.277 35.207 35.167 35.177 35.067V35.4371C35.197 35.4871 35.237 35.5871 35.297 35.7571Z" fill="#8B4513"/>
<path d="M48.1996 8.50166C47.8796 8.50166 47.5995 8.45165 47.3495 8.36164C47.1094 8.27162 46.8894 8.10158 46.6893 7.87154C46.6493 7.80152 46.6093 7.73151 46.5693 7.6615C46.5293 7.59148 46.4993 7.51146 46.4593 7.43145C46.4193 7.35143 46.3793 7.27142 46.3293 7.1814C46.2792 7.09138 46.2192 7.00136 46.1392 6.90134C46.0392 6.77132 45.9392 6.66129 45.8392 6.59128C45.7391 6.51126 45.6191 6.46125 45.4891 6.43125C45.4391 6.41124 45.3591 6.40124 45.279 6.39124C45.189 6.38124 45.099 6.37124 44.999 6.37124C44.899 6.36123 44.7989 6.36123 44.6989 6.36123C44.5489 6.36123 44.3989 6.37124 44.2388 6.38124C44.0788 6.39124 43.9488 6.41124 43.8288 6.43125C43.7087 6.46125 43.5987 6.50126 43.5187 6.55127C43.4387 6.60128 43.3587 6.6713 43.2986 6.76131C43.2386 6.84133 43.1786 6.94135 43.1186 7.04137C43.0586 7.15139 42.9986 7.26141 42.9386 7.37144C42.8786 7.48146 42.8185 7.60148 42.7485 7.71151C42.6085 7.91155 42.4185 8.07158 42.1884 8.21161C41.9584 8.34163 41.6283 8.41165 41.1982 8.41165C40.8282 8.41165 40.5181 8.36164 40.268 8.25161C40.018 8.14159 39.838 7.97156 39.7079 7.72151C39.5879 7.47146 39.5279 7.14139 39.5279 6.72131C39.5279 6.45125 39.5579 6.1712 39.6179 5.87114C39.6779 5.58108 39.7679 5.28102 39.868 4.97096C39.978 4.6709 40.088 4.37084 40.218 4.08078C40.3481 3.79072 40.4781 3.52067 40.6081 3.26061C40.7381 3.00056 40.8682 2.77052 40.9882 2.56047C41.1082 2.35043 41.2182 2.1904 41.3082 2.06037C41.4583 1.84033 41.6383 1.61028 41.8584 1.37024C42.0784 1.13019 42.3184 0.910145 42.5985 0.710105C42.8786 0.510065 43.1886 0.34003 43.5387 0.220006C43.8888 0.0899804 44.2788 0.0299683 44.6989 0.0299683C45.319 0.0299683 45.9092 0.169996 46.4693 0.440051C47.0294 0.710105 47.5295 1.11018 47.9896 1.61028C48.1796 1.81032 48.3597 2.05037 48.5397 2.32043C48.7097 2.59048 48.8698 2.89054 49.0198 3.2106C49.1698 3.53067 49.2998 3.86073 49.4199 4.2008C49.5399 4.54087 49.6399 4.88094 49.7299 5.22101C49.82 5.56107 49.89 5.89114 49.93 6.1912C49.97 6.50126 50 6.78132 50 7.04137C50 7.58148 49.84 7.96155 49.5099 8.1816C49.1898 8.39164 48.7497 8.50166 48.1996 8.50166ZM45.6491 4.35083C45.7391 4.30082 45.7991 4.25081 45.8292 4.1708C45.8592 4.10078 45.8692 4.00076 45.8692 3.86073C45.8692 3.76071 45.8592 3.66069 45.8292 3.53067C45.7991 3.41064 45.7691 3.29062 45.7291 3.16059C45.6891 3.04057 45.6391 2.92055 45.5791 2.82053C45.4991 2.6705 45.3991 2.55047 45.289 2.45045C45.179 2.36043 45.059 2.31042 44.939 2.31042C44.7589 2.31042 44.5889 2.39044 44.4389 2.54047C44.2888 2.6905 44.1688 2.86053 44.0688 3.03057C44.0388 3.09058 43.9988 3.1706 43.9588 3.25061C43.9188 3.33063 43.8888 3.42065 43.8588 3.51066C43.8288 3.60068 43.8087 3.6907 43.7887 3.77072C43.7687 3.85073 43.7587 3.93075 43.7587 3.99076C43.7587 4.15079 43.8288 4.27082 43.9688 4.34083C44.1088 4.41084 44.2688 4.44085 44.4589 4.44085C44.6489 4.44085 44.819 4.44085 44.969 4.43085C45.119 4.42085 45.249 4.41084 45.3691 4.40084C45.4791 4.39084 45.5791 4.37084 45.6491 4.35083Z" fill="#A52A2A"/>
<path d="M42.5085 19.4739C42.0684 19.4739 41.6983 19.3839 41.3883 19.2039C41.0782 19.0238 40.8482 18.7638 40.6781 18.4237C40.6181 18.2937 40.5681 18.1436 40.5281 17.9636C40.4881 17.7836 40.4481 17.5935 40.4181 17.3835C40.3881 17.1735 40.3681 16.9534 40.3481 16.7434C40.328 16.5233 40.318 16.3033 40.318 16.0932C40.308 15.8732 40.308 15.6732 40.308 15.4931C40.308 14.743 40.3781 14.0928 40.5281 13.5527C40.6681 13.0026 40.8782 12.5525 41.1482 12.1825C41.4183 11.8224 41.7383 11.5323 42.1184 11.3123C42.4985 11.1022 42.9286 10.9422 43.4087 10.8522C43.8888 10.7622 44.3989 10.7122 44.959 10.7122C45.4491 10.7122 45.9292 10.7722 46.3893 10.8922C46.8494 11.0122 47.2694 11.1823 47.6495 11.4123C48.0296 11.6423 48.3296 11.9324 48.5497 12.2625C48.7697 12.5925 48.8898 12.9826 48.8898 13.4127C48.8898 13.7428 48.8398 14.0128 48.7497 14.2329C48.6497 14.4529 48.5297 14.6229 48.3697 14.763C48.2096 14.893 48.0296 15.003 47.8395 15.073C47.6495 15.143 47.4495 15.2031 47.2594 15.2631C47.1494 15.2931 47.0594 15.3231 46.9894 15.3731C46.9194 15.4131 46.8794 15.4731 46.8794 15.5431C46.8794 15.5931 46.9394 15.6732 47.0494 15.7732C47.1594 15.8832 47.2994 16.0032 47.4695 16.1432C47.6295 16.2833 47.7995 16.4233 47.9696 16.5833C48.1396 16.7334 48.2796 16.8834 48.3997 17.0234C48.4697 17.1034 48.5397 17.1835 48.6097 17.2735C48.6797 17.3635 48.7397 17.4535 48.8097 17.5435C48.8698 17.6335 48.9298 17.7236 48.9798 17.8036C49.0298 17.8836 49.0698 17.9636 49.0998 18.0436C49.1298 18.1136 49.1398 18.1837 49.1398 18.2337C49.1398 18.4837 49.0598 18.6938 48.8998 18.8638C48.7397 19.0338 48.5297 19.1638 48.2796 19.2539C48.0296 19.3439 47.7595 19.3839 47.4795 19.3839C47.2494 19.3839 47.0294 19.3539 46.8193 19.2839C46.6093 19.2239 46.4193 19.1238 46.2392 19.0038C46.0592 18.8838 45.8892 18.7238 45.7291 18.5437C45.5691 18.3637 45.4191 18.1536 45.279 17.9336C45.119 17.6836 44.969 17.4635 44.8289 17.2635C44.6889 17.0634 44.5589 16.9134 44.4489 16.7934C44.3389 16.6733 44.2488 16.6133 44.1988 16.6133C44.1688 16.6133 44.1488 16.6233 44.1288 16.6433C44.1088 16.6633 44.0988 16.7034 44.0988 16.7534C44.0988 16.8034 44.0888 16.8634 44.0888 16.9434C44.0888 17.0234 44.0888 17.1134 44.0888 17.2135C44.0888 17.2835 44.0888 17.3635 44.0888 17.4535C44.0888 17.5435 44.0888 17.6435 44.0888 17.7436C44.0888 17.8436 44.0888 17.9436 44.0788 18.0436C44.0688 18.1436 44.0688 18.2337 44.0588 18.3237C44.0488 18.4137 44.0388 18.4937 44.0288 18.5537C43.9488 18.9038 43.7687 19.1438 43.4887 19.2739C43.1686 19.4139 42.8586 19.4739 42.5085 19.4739ZM44.6089 14.3629C44.6989 14.3629 44.7989 14.3529 44.909 14.3329C45.019 14.3129 45.129 14.2729 45.229 14.2229C45.3391 14.1729 45.4291 14.1128 45.5091 14.0328C45.5891 13.9528 45.6591 13.8628 45.7091 13.7528C45.7591 13.6427 45.7891 13.5227 45.7891 13.3827C45.7891 13.2527 45.7591 13.1326 45.6991 13.0326C45.6391 12.9326 45.5591 12.8426 45.4591 12.7826C45.3591 12.7126 45.239 12.6625 45.119 12.6325C44.999 12.6025 44.869 12.5825 44.7389 12.5825C44.5789 12.5825 44.4589 12.6025 44.3589 12.6425C44.2588 12.6826 44.1788 12.7426 44.1188 12.8226C44.0588 12.9026 44.0088 12.9926 43.9788 13.0926C43.9488 13.1626 43.9288 13.2427 43.9088 13.3227C43.8888 13.4027 43.8688 13.4927 43.8688 13.5827C43.8588 13.6728 43.8588 13.7728 43.8588 13.8928C43.8588 14.0028 43.8888 14.0928 43.9488 14.1628C44.0088 14.2329 44.0988 14.2929 44.2188 14.3229C44.3288 14.3529 44.4689 14.3629 44.6089 14.3629Z" fill="#A52A2A"/>
<path d="M44.5189 30.3761C44.0588 30.3761 43.7087 30.266 43.4587 30.056C43.2186 29.846 43.0686 29.5359 43.0086 29.1358C42.9986 29.0158 42.9786 28.8658 42.9686 28.7057C42.9586 28.5457 42.9386 28.3657 42.9286 28.1856C42.9186 27.9956 42.9086 27.8056 42.8986 27.5955C42.8886 27.3955 42.8886 27.1854 42.8886 26.9654C42.8886 26.7453 42.8886 26.5353 42.8786 26.3153C42.8786 26.0952 42.8786 25.8852 42.8786 25.6751C42.8786 25.3151 42.8486 25.065 42.7785 24.915C42.7185 24.7649 42.5585 24.6849 42.3284 24.6849C42.0984 24.6849 41.8584 24.7049 41.6283 24.7349C41.3983 24.7649 41.1582 24.785 40.9082 24.785C40.6881 24.785 40.4881 24.7349 40.318 24.6349C40.148 24.5349 40.008 24.3849 39.908 24.1948C39.8079 24.0048 39.7579 23.7747 39.7579 23.5147C39.7579 23.2146 39.868 22.9646 40.098 22.7545C40.318 22.5445 40.6181 22.3645 40.9982 22.2344C41.3783 22.1044 41.7983 21.9844 42.2684 21.9044C42.7385 21.8244 43.2186 21.7643 43.7087 21.7343C44.1988 21.7043 44.6689 21.6943 45.109 21.6943C45.5391 21.6943 45.9792 21.7043 46.4193 21.7143C46.8594 21.7243 47.2694 21.7643 47.6595 21.8244C48.0496 21.8844 48.3997 21.9744 48.6997 22.1044C48.9998 22.2344 49.2398 22.4045 49.4199 22.6245C49.5999 22.8446 49.6799 23.1246 49.6799 23.4647C49.6799 23.7647 49.6299 24.0248 49.5399 24.2448C49.4399 24.4649 49.2998 24.6249 49.1098 24.7349C48.9198 24.845 48.6897 24.905 48.4097 24.905C48.1396 24.905 47.9596 24.905 47.8496 24.895C47.7395 24.885 47.5995 24.885 47.4395 24.885C47.2194 24.885 47.0594 24.915 46.9494 24.985C46.8394 25.055 46.7693 25.165 46.7293 25.3151C46.6893 25.4751 46.6693 25.6851 46.6493 25.9652C46.6393 26.1252 46.6193 26.2953 46.6093 26.4653C46.5993 26.6353 46.5793 26.8154 46.5593 26.9854C46.5393 27.1654 46.5193 27.3355 46.4893 27.5055C46.4593 27.6755 46.4293 27.8456 46.3993 28.0156C46.3693 28.1756 46.3292 28.3357 46.2992 28.4957C46.2692 28.6457 46.2292 28.7958 46.1892 28.9258C46.1492 29.0558 46.1092 29.1758 46.0592 29.2859C45.9292 29.5459 45.8091 29.7559 45.6891 29.916C45.5691 30.076 45.4191 30.196 45.239 30.276C45.039 30.3361 44.8089 30.3761 44.5189 30.3761Z" fill="#A52A2A"/>
<path d="M44.0288 41.4783C43.6087 41.4783 43.1986 41.4583 42.7885 41.4082C42.3784 41.3582 41.9984 41.2882 41.6483 41.1782C41.3082 41.0682 41.0282 40.9181 40.8281 40.7181C40.6181 40.5181 40.5181 40.268 40.5181 39.968C40.5181 39.6479 40.5881 39.3978 40.7381 39.2278C40.8781 39.0478 41.0782 38.9277 41.3182 38.8577C41.5583 38.7877 41.8183 38.7577 42.1084 38.7577C42.1584 38.7577 42.2384 38.7677 42.3384 38.7777C42.4384 38.7977 42.5485 38.8077 42.6685 38.8277C42.7885 38.8477 42.9085 38.8577 43.0286 38.8577C43.2386 38.8577 43.4186 38.8477 43.5787 38.8377C43.7387 38.8177 43.8787 38.7977 43.9888 38.7477C44.0988 38.7077 44.1888 38.6477 44.2488 38.5677C44.3088 38.4877 44.3388 38.3976 44.3388 38.2676C44.3388 38.1676 44.3088 38.0876 44.2488 38.0076C44.1888 37.9275 44.0988 37.8675 43.9888 37.7975C43.8787 37.7375 43.7487 37.6775 43.5987 37.6175C43.4487 37.5575 43.2786 37.4975 43.0986 37.4374C42.7985 37.3374 42.5185 37.2174 42.2484 37.0774C41.9784 36.9373 41.7483 36.7673 41.5383 36.5773C41.3382 36.3872 41.1782 36.1772 41.0582 35.9371C40.9381 35.6971 40.8781 35.4371 40.8781 35.147C40.8781 34.7769 40.9682 34.4368 41.1582 34.1568C41.3482 33.8667 41.5983 33.6267 41.9083 33.4266C42.2284 33.2266 42.5785 33.0566 42.9686 32.9365C43.3586 32.8165 43.7687 32.7265 44.1888 32.6665C44.6089 32.6065 45.019 32.5765 45.409 32.5765C45.7491 32.5765 46.0792 32.5965 46.3992 32.6265C46.7193 32.6665 47.0094 32.7265 47.2694 32.8165C47.5295 32.9065 47.7395 33.0266 47.8895 33.1766C48.0396 33.3266 48.1196 33.5167 48.1196 33.7567C48.1196 34.0368 48.0496 34.2568 47.9195 34.4368C47.7895 34.6069 47.6195 34.7369 47.4094 34.8169C47.1994 34.8969 46.9794 34.9369 46.7393 34.9369C46.6493 34.9369 46.5593 34.9269 46.4793 34.9069C46.3992 34.8869 46.2992 34.8669 46.2092 34.8469C46.1092 34.8269 45.9892 34.8169 45.8491 34.8169C45.7491 34.8169 45.6491 34.8269 45.5591 34.8369C45.4691 34.8569 45.379 34.8769 45.309 34.9069C45.239 34.9369 45.179 34.987 45.139 35.037C45.099 35.097 45.079 35.167 45.079 35.257C45.079 35.367 45.109 35.4671 45.179 35.5471C45.239 35.6271 45.339 35.7071 45.4491 35.7771C45.5691 35.8471 45.7091 35.9171 45.8691 35.9872C46.0292 36.0572 46.1992 36.1272 46.3892 36.1972C46.6593 36.2972 46.9193 36.4272 47.1994 36.5773C47.4695 36.7373 47.7195 36.9173 47.9496 37.1274C48.1796 37.3374 48.3596 37.5875 48.4997 37.8575C48.6397 38.1276 48.7097 38.4376 48.7097 38.7777C48.7097 39.2478 48.5797 39.6579 48.3296 39.988C48.0696 40.328 47.7295 40.6081 47.2794 40.8181C46.8393 41.0382 46.3392 41.1882 45.7791 41.2882C45.209 41.4282 44.6289 41.4783 44.0288 41.4783Z" fill="#A52A2A"/>
<path d="M78.3732 13.2371V16.4291H73.3572V29.8691H69.6132V16.4291H64.5972V13.2371H78.3732ZM89.9466 29.8691C89.7706 29.2931 89.5706 28.7011 89.3466 28.0931C89.1386 27.4851 88.9306 26.8771 88.7226 26.2691H82.2426C82.0346 26.8771 81.8186 27.4851 81.5946 28.0931C81.3866 28.7011 81.1946 29.2931 81.0186 29.8691H77.1306C77.7546 28.0771 78.3466 26.4211 78.9066 24.9011C79.4666 23.3811 80.0106 21.9491 80.5386 20.6051C81.0826 19.2611 81.6106 17.9891 82.1226 16.7891C82.6506 15.5731 83.1946 14.3891 83.7546 13.2371H87.3306C87.8746 14.3891 88.4106 15.5731 88.9386 16.7891C89.4666 17.9891 89.9946 19.2611 90.5226 20.6051C91.0666 21.9491 91.6186 23.3811 92.1786 24.9011C92.7386 26.4211 93.3306 28.0771 93.9546 29.8691H89.9466ZM85.4586 17.0051C85.3786 17.2451 85.2586 17.5731 85.0986 17.9891C84.9386 18.4051 84.7546 18.8851 84.5466 19.4291C84.3386 19.9731 84.1066 20.5731 83.8506 21.2291C83.6106 21.8851 83.3626 22.5731 83.1066 23.2931H87.8346C87.5786 22.5731 87.3306 21.8851 87.0906 21.2291C86.8506 20.5731 86.6186 19.9731 86.3946 19.4291C86.1866 18.8851 86.0026 18.4051 85.8426 17.9891C85.6826 17.5731 85.5546 17.2451 85.4586 17.0051ZM100.523 13.2371C100.812 13.7651 101.14 14.4211 101.508 15.2051C101.892 15.9731 102.284 16.8131 102.684 17.7251C103.1 18.6211 103.508 19.5411 103.908 20.4851C104.308 21.4291 104.684 22.3171 105.036 23.1491C105.388 22.3171 105.764 21.4291 106.164 20.4851C106.564 19.5411 106.964 18.6211 107.364 17.7251C107.78 16.8131 108.172 15.9731 108.54 15.2051C108.924 14.4211 109.26 13.7651 109.548 13.2371H112.956C113.116 14.3411 113.26 15.5811 113.388 16.9571C113.532 18.3171 113.652 19.7411 113.748 21.2291C113.86 22.7011 113.956 24.1811 114.036 25.6691C114.132 27.1571 114.212 28.5571 114.276 29.8691H110.628C110.58 28.2531 110.516 26.4931 110.436 24.5891C110.356 22.6851 110.236 20.7651 110.076 18.8291C109.788 19.5011 109.468 20.2451 109.116 21.0611C108.764 21.8771 108.412 22.6931 108.06 23.5091C107.724 24.3251 107.396 25.1091 107.076 25.8611C106.756 26.5971 106.484 27.2291 106.26 27.7571H103.644C103.42 27.2291 103.148 26.5971 102.828 25.8611C102.508 25.1091 102.172 24.3251 101.82 23.5091C101.484 22.6931 101.14 21.8771 100.788 21.0611C100.436 20.2451 100.116 19.5011 99.8275 18.8291C99.6675 20.7651 99.5475 22.6851 99.4675 24.5891C99.3875 26.4931 99.3235 28.2531 99.2755 29.8691H95.6275C95.6915 28.5571 95.7635 27.1571 95.8435 25.6691C95.9395 24.1811 96.0355 22.7011 96.1315 21.2291C96.2435 19.7411 96.3635 18.3171 96.4915 16.9571C96.6355 15.5811 96.7875 14.3411 96.9475 13.2371H100.523ZM129.748 13.2371V16.4291H124.732V29.8691H120.988V16.4291H115.972V13.2371H129.748ZM141.322 29.8691C141.146 29.2931 140.946 28.7011 140.722 28.0931C140.514 27.4851 140.306 26.8771 140.098 26.2691H133.618C133.41 26.8771 133.194 27.4851 132.97 28.0931C132.762 28.7011 132.57 29.2931 132.394 29.8691H128.506C129.13 28.0771 129.722 26.4211 130.282 24.9011C130.842 23.3811 131.386 21.9491 131.914 20.6051C132.458 19.2611 132.986 17.9891 133.498 16.7891C134.026 15.5731 134.57 14.3891 135.13 13.2371H138.706C139.25 14.3891 139.786 15.5731 140.314 16.7891C140.842 17.9891 141.37 19.2611 141.898 20.6051C142.442 21.9491 142.994 23.3811 143.554 24.9011C144.114 26.4211 144.706 28.0771 145.33 29.8691H141.322ZM136.834 17.0051C136.754 17.2451 136.634 17.5731 136.474 17.9891C136.314 18.4051 136.13 18.8851 135.922 19.4291C135.714 19.9731 135.482 20.5731 135.226 21.2291C134.986 21.8851 134.738 22.5731 134.482 23.2931H139.21C138.954 22.5731 138.706 21.8851 138.466 21.2291C138.226 20.5731 137.994 19.9731 137.77 19.4291C137.562 18.8851 137.378 18.4051 137.218 17.9891C137.058 17.5731 136.93 17.2451 136.834 17.0051ZM151.898 13.2371C152.187 13.7651 152.515 14.4211 152.883 15.2051C153.267 15.9731 153.659 16.8131 154.059 17.7251C154.475 18.6211 154.883 19.5411 155.283 20.4851C155.683 21.4291 156.059 22.3171 156.411 23.1491C156.763 22.3171 157.139 21.4291 157.539 20.4851C157.939 19.5411 158.339 18.6211 158.739 17.7251C159.155 16.8131 159.547 15.9731 159.915 15.2051C160.299 14.4211 160.635 13.7651 160.923 13.2371H164.331C164.491 14.3411 164.635 15.5811 164.763 16.9571C164.907 18.3171 165.027 19.7411 165.123 21.2291C165.235 22.7011 165.331 24.1811 165.411 25.6691C165.507 27.1571 165.587 28.5571 165.651 29.8691H162.003C161.955 28.2531 161.891 26.4931 161.811 24.5891C161.731 22.6851 161.611 20.7651 161.451 18.8291C161.163 19.5011 160.843 20.2451 160.491 21.0611C160.139 21.8771 159.787 22.6931 159.435 23.5091C159.099 24.3251 158.771 25.1091 158.451 25.8611C158.131 26.5971 157.859 27.2291 157.635 27.7571H155.019C154.795 27.2291 154.523 26.5971 154.203 25.8611C153.883 25.1091 153.547 24.3251 153.195 23.5091C152.859 22.6931 152.515 21.8771 152.163 21.0611C151.811 20.2451 151.491 19.5011 151.203 18.8291C151.043 20.7651 150.923 22.6851 150.843 24.5891C150.763 26.4931 150.699 28.2531 150.651 29.8691H147.003C147.067 28.5571 147.139 27.1571 147.219 25.6691C147.315 24.1811 147.411 22.7011 147.507 21.2291C147.619 19.7411 147.739 18.3171 147.867 16.9571C148.011 15.5811 148.163 14.3411 148.323 13.2371H151.898ZM180.158 29.8691C179.982 29.2931 179.782 28.7011 179.558 28.0931C179.35 27.4851 179.142 26.8771 178.934 26.2691H172.454C172.246 26.8771 172.03 27.4851 171.806 28.0931C171.598 28.7011 171.406 29.2931 171.23 29.8691H167.342C167.966 28.0771 168.558 26.4211 169.118 24.9011C169.678 23.3811 170.222 21.9491 170.75 20.6051C171.294 19.2611 171.822 17.9891 172.334 16.7891C172.862 15.5731 173.406 14.3891 173.966 13.2371H177.542C178.086 14.3891 178.622 15.5731 179.15 16.7891C179.678 17.9891 180.206 19.2611 180.734 20.6051C181.278 21.9491 181.83 23.3811 182.39 24.9011C182.95 26.4211 183.542 28.0771 184.166 29.8691H180.158ZM175.67 17.0051C175.59 17.2451 175.47 17.5731 175.31 17.9891C175.15 18.4051 174.966 18.8851 174.758 19.4291C174.55 19.9731 174.318 20.5731 174.062 21.2291C173.822 21.8851 173.574 22.5731 173.318 23.2931H178.046C177.79 22.5731 177.542 21.8851 177.302 21.2291C177.062 20.5731 176.83 19.9731 176.606 19.4291C176.398 18.8851 176.214 18.4051 176.054 17.9891C175.894 17.5731 175.766 17.2451 175.67 17.0051ZM191.19 13.0451C193.686 13.0451 195.598 13.4931 196.926 14.3891C198.254 15.2691 198.918 16.6451 198.918 18.5171C198.918 19.6851 198.646 20.6371 198.102 21.3731C197.574 22.0931 196.806 22.6611 195.798 23.0771C196.134 23.4931 196.486 23.9731 196.854 24.5171C197.222 25.0451 197.582 25.6051 197.934 26.1971C198.302 26.7731 198.654 27.3811 198.99 28.0211C199.326 28.6451 199.638 29.2611 199.926 29.8691H195.726C195.422 29.3251 195.11 28.7731 194.79 28.2131C194.486 27.6531 194.166 27.1091 193.83 26.5811C193.51 26.0531 193.19 25.5571 192.87 25.0931C192.55 24.6131 192.23 24.1811 191.91 23.7971H190.062V29.8691H186.318V13.4771C187.134 13.3171 187.974 13.2051 188.838 13.1411C189.718 13.0771 190.502 13.0451 191.19 13.0451ZM191.406 16.2371C191.134 16.2371 190.886 16.2451 190.662 16.2611C190.454 16.2771 190.254 16.2931 190.062 16.3091V20.8211H191.118C192.526 20.8211 193.534 20.6451 194.142 20.2931C194.75 19.9411 195.054 19.3411 195.054 18.4931C195.054 17.6771 194.742 17.1011 194.118 16.7651C193.51 16.4131 192.606 16.2371 191.406 16.2371ZM214.428 13.2371V16.4291H209.412V29.8691H205.668V16.4291H200.652V13.2371H214.428ZM221.37 27.0131C221.898 27.0131 222.33 26.9731 222.666 26.8931C223.018 26.7971 223.298 26.6771 223.506 26.5331C223.714 26.3731 223.858 26.1891 223.938 25.9811C224.018 25.7731 224.058 25.5411 224.058 25.2851C224.058 24.7411 223.802 24.2931 223.29 23.9411C222.778 23.5731 221.898 23.1811 220.65 22.7651C220.106 22.5731 219.562 22.3571 219.018 22.1171C218.474 21.8611 217.986 21.5491 217.554 21.1811C217.122 20.7971 216.77 20.3411 216.498 19.8131C216.226 19.2691 216.09 18.6131 216.09 17.8451C216.09 17.0771 216.234 16.3891 216.522 15.7811C216.81 15.1571 217.218 14.6291 217.746 14.1971C218.274 13.7651 218.914 13.4371 219.666 13.2131C220.418 12.9731 221.266 12.8531 222.21 12.8531C223.33 12.8531 224.298 12.9731 225.114 13.2131C225.93 13.4531 226.602 13.7171 227.13 14.0051L226.05 16.9571C225.586 16.7171 225.066 16.5091 224.49 16.3331C223.93 16.1411 223.25 16.0451 222.45 16.0451C221.554 16.0451 220.906 16.1731 220.506 16.4291C220.122 16.6691 219.93 17.0451 219.93 17.5571C219.93 17.8611 220.002 18.1171 220.146 18.3251C220.29 18.5331 220.49 18.7251 220.746 18.9011C221.018 19.0611 221.322 19.2131 221.658 19.3571C222.01 19.4851 222.394 19.6211 222.81 19.7651C223.674 20.0851 224.426 20.4051 225.066 20.7251C225.706 21.0291 226.234 21.3891 226.65 21.8051C227.082 22.2211 227.402 22.7091 227.61 23.2691C227.818 23.8291 227.922 24.5091 227.922 25.3091C227.922 26.8611 227.378 28.0691 226.29 28.9331C225.202 29.7811 223.562 30.2051 221.37 30.2051C220.634 30.2051 219.97 30.1571 219.378 30.0611C218.786 29.9811 218.258 29.8771 217.794 29.7491C217.346 29.6211 216.954 29.4851 216.618 29.3411C216.298 29.1971 216.026 29.0611 215.802 28.9331L216.858 25.9571C217.354 26.2291 217.962 26.4771 218.682 26.7011C219.418 26.9091 220.314 27.0131 221.37 27.0131Z" fill="black"/>
</svg>
